<svg xmlns="http://www.w3.org/2000/svg" viewBox="0 0 48 48" id="discussion"><path fill="#0c0c0c" d="M24 0C10.767 0 0 10.767 0 24s10.767 24 24 24 24-10.767 24-24S37.233 0 24 0zm0 47C11.318 47 1 36.682 1 24S11.318 1 24 1s23 10.318 23 23-10.318 23-23 23z"></path><path fill="#0c0c0c" d="M11.5 12.5h8a.5.5 0 0 0 0-1h-8a.5.5 0 0 0 0 1zM11.5 14.5h8a.5.5 0 0 0 0-1h-8a.5.5 0 0 0 0 1zM30.85 15.649a.346.346 0 0 0-.16-.109.496.496 0 0 0-.54.109.36.36 0 0 0-.11.16A.438.438 0 0 0 30 16c0 .069.01.13.04.189.02.061.06.12.11.16.09.101.22.15.35.15.07 0 .13-.01.19-.04a.372.372 0 0 0 .16-.11c.05-.04.09-.1.11-.16.03-.059.04-.12.04-.189a.43.43 0 0 0-.04-.19.358.358 0 0 0-.11-.161zM30.15 13.649A.473.473 0 0 0 30 14c0 .14.05.26.15.35.09.101.22.15.35.15.13 0 .26-.05.35-.15.1-.09.15-.22.15-.35s-.05-.26-.15-.351a.503.503 0 0 0-.7 0zM11.5 16.5h5a.5.5 0 0 0 0-1h-5a.5.5 0 0 0 0 1zM21.761 32.88l-2.357-1.414-.875-.971a.496.496 0 0 0-.243-.138v-.808a3.583 3.583 0 0 0 1.322-2.767V25.52l.541-2.506a1.916 1.916 0 0 0-.319-1.454 1.917 1.917 0 0 0-1.26-.792l-3.366-.562a1.887 1.887 0 0 0-1.54.425 1.882 1.882 0 0 0-.625 1.05 1.658 1.658 0 0 0-1.158 1.965l.514 1.876v1.259c0 1.117.522 2.105 1.322 2.767v.809a.491.491 0 0 0-.24.136l-.863.959-2.378 1.427A2.57 2.57 0 0 0 9 35.067V38a.5.5 0 0 0 1 0v-2.933c0-.542.289-1.052.753-1.33l2.054-1.233 1.097 1.372a.502.502 0 0 0 .363.187l.028.001a.507.507 0 0 0 .354-.146l.847-.847V38a.5.5 0 0 0 1 0v-4.948l.865.865a.5.5 0 0 0 .354.146l.028-.001a.498.498 0 0 0 .363-.187l1.094-1.368 2.048 1.229c.463.28.752.789.752 1.331V38a.5.5 0 0 0 1 0v-2.933c0-.891-.475-1.73-1.239-2.187zm-8.776-10.019a.654.654 0 0 1 .509-.243c.276 0 .5-.262.5-.538a.9.9 0 0 1 1.045-.887l3.366.562a.92.92 0 0 1 .606.382.913.913 0 0 1 .157.683l-.327 1.512-.199-.248v-.537a.5.5 0 0 0-.5-.5H13.86a.5.5 0 0 0-.5.5v.538l-.241.3-.267-.974a.664.664 0 0 1 .133-.55zm.411 3.92v-1.143l.855-1.065a.502.502 0 0 0 .11-.313v-.214h3.282v.214c0 .114.039.225.111.313l.854 1.061v1.147c0 1.438-1.169 2.606-2.606 2.606s-2.606-1.168-2.606-2.606zm2.607 3.607c.454 0 .884-.094 1.284-.247v.55l-1.283.611-1.286-.612v-.548c.401.152.831.246 1.285.246zm-1.667 2.427l-.753-.942.389-.432 1.177.561-.813.813zm3.336 0l-.813-.813 1.177-.562.39.434-.754.941z"></path><path fill="#0c0c0c" d="M11.503 34.676a.499.499 0 1 0-.739.674l.427.468c.262.287.406.658.406 1.047V38a.5.5 0 0 0 1 0v-1.136c0-.639-.237-1.25-.667-1.721l-.427-.467zM20.497 34.676l-.427.468a2.542 2.542 0 0 0-.667 1.721V38a.5.5 0 0 0 1 0v-1.136c0-.389.144-.76.406-1.047l.427-.468a.5.5 0 1 0-.739-.673zM37.653 33.089l-3.386-2.107V29.68a3.425 3.425 0 0 0 1.181-2.576v-.535l.084-.139a3.794 3.794 0 0 0 .346-1.588c0-1.452-.825-2.701-2.021-3.344.074-.178.118-.364.118-.556 0-.926-.885-1.68-1.974-1.68s-1.974.754-1.974 1.68c0 .214.049.422.14.617-1.135.66-1.909 1.877-1.909 3.283 0 .506.101.997.294 1.46v.802c0 1.028.462 1.942 1.178 2.574v1.303l-3.384 2.109A2.839 2.839 0 0 0 25 35.515V38a.5.5 0 0 0 1 0v-2.485c0-.646.327-1.235.875-1.576l2.263-1.41A4.599 4.599 0 0 0 32 33.546a4.597 4.597 0 0 0 2.861-1.016l2.263 1.408c.548.342.876.931.876 1.578V38a.5.5 0 0 0 1 0v-2.484c0-.994-.503-1.901-1.347-2.427zm-6.569-11.926a.471.471 0 0 1-.058-.221c0-.368.446-.68.974-.68s.974.312.974.68a.434.434 0 0 1-.044.189c-.015-.004-.031-.004-.047-.008-.049-.011-.1-.016-.15-.025a3.756 3.756 0 0 0-.588-.059c-.027-.001-.052-.008-.078-.008l-.03.003a3.735 3.735 0 0 0-.83.104c-.041.01-.082.014-.123.025zm.201.993c.085-.025.17-.055.257-.072.163-.031.331-.049.502-.051.051 0 .103.008.154.011.122.006.243.016.361.036.08.014.158.037.237.058a2.807 2.807 0 0 1 2.078 2.855 1.923 1.923 0 0 0-1.331-.533c-.99 0-1.936-.307-2.735-.886a.498.498 0 0 0-.784.49 2.785 2.785 0 0 0-.747.588c.08-1.19.9-2.172 2.008-2.496zm-1.733 4.948v-.57a1.8 1.8 0 0 1 1.334-1.741 5.617 5.617 0 0 0 2.657.669c.469 0 .843.356.904.808v.835c0 1.35-1.098 2.447-2.447 2.447s-2.448-1.099-2.448-2.448zm.494 4.859l.448-.279a.491.491 0 0 0 .226-.425h.009v-.957c.394.157.821.249 1.27.249.448 0 .874-.092 1.267-.248v.956a.5.5 0 0 0 .236.425l.45.28a3.76 3.76 0 0 1-3.906-.001z"></path><path fill="#0c0c0c" d="M27.643 34.57a.5.5 0 0 0-.74.674l.397.436c.237.26.367.596.367.947V38a.5.5 0 0 0 1 0v-1.373c0-.602-.223-1.178-.628-1.621l-.396-.436zM36.357 34.57l-.396.435a2.4 2.4 0 0 0-.63 1.622V38a.5.5 0 0 0 1 0v-1.373c0-.352.13-.688.368-.947l.397-.436a.5.5 0 0 0-.739-.674zM10.5 18.5h.5V21a.5.5 0 0 0 .854.354l2.854-2.854H20.5c.827 0 1.5-.673 1.5-1.5v-6c0-.827-.673-1.5-1.5-1.5h-10c-.827 0-1.5.673-1.5 1.5v6c0 .827.673 1.5 1.5 1.5zM10 11a.5.5 0 0 1 .5-.5h10a.5.5 0 0 1 .5.5v6a.5.5 0 0 1-.5.5h-6a.504.504 0 0 0-.354.146L12 19.793V18a.5.5 0 0 0-.5-.5h-1a.5.5 0 0 1-.5-.5v-6zM37.5 11.5h-8c-.827 0-1.5.673-1.5 1.5v4c0 .827.673 1.5 1.5 1.5h3.793l2.854 2.854A.5.5 0 0 0 37 21v-2.5h.5c.827 0 1.5-.673 1.5-1.5v-4c0-.827-.673-1.5-1.5-1.5zM38 17a.5.5 0 0 1-.5.5h-1a.5.5 0 0 0-.5.5v1.793l-2.146-2.146a.5.5 0 0 0-.354-.147h-4a.5.5 0 0 1-.5-.5v-4a.5.5 0 0 1 .5-.5h8a.5.5 0 0 1 .5.5v4z"></path><path fill="#0c0c0c" d="M32.5 13.5a.5.5 0 0 0 0 1 .5.5 0 0 1 0 1 .5.5 0 0 0 0 1c.827 0 1.5-.673 1.5-1.5s-.673-1.5-1.5-1.5zM35.5 13.5a.5.5 0 0 0 0 1 .5.5 0 0 1 0 1 .5.5 0 0 0 0 1c.827 0 1.5-.673 1.5-1.5s-.673-1.5-1.5-1.5z"></path></svg>